<svg xmlns="http://www.w3.org/2000/svg" width="24" height="24" fill="#a8a8a8" xmlns:v="https://vecta.io/nano"><path d="M14 16a1 1 0 1 0 0 2h2a1 1 0 1 0 0-2h-2z"/><path fill-rule="evenodd" d="M7 7.5C7 4.576 9.131 2 12 2s5 2.576 5 5.5c0 1.977-.975 3.796-2.493 4.766C20.023 13.183 22 15.964 22 18v1a3 3 0 0 1-3 3H5a3 3 0 0 1-3-3v-1c0-2.036 1.977-4.817 7.493-5.734C7.975 11.296 7 9.477 7 7.5zM12 4c-1.549 0-3 1.453-3 3.5s1.451 3.5 3 3.5 3-1.453 3-3.5S13.549 4 12 4zm0 10.002c-6.957.402-8 3.313-8 3.998v1a1 1 0 0 0 1 1h14a1 1 0 0 0 1-1v-1c0-.685-1.043-3.597-8-3.998z"/></svg>