<svg enable-background="new 0 0 160 120" height="120" viewBox="0 0 160 120" width="160" xmlns="http://www.w3.org/2000/svg"><path d="m0 0v120h160v-120zm100 72.7c0 2.5-1.9 4.4-4.2 4.4h-31.6c-2.3 0-4.2-2-4.2-4.4v-22.8c0-2.5 1.9-4.4 4.2-4.4h4.1l.1-.1 2.4-2.5h8.3l2.4 2.5.1.1h14.1c2.3 0 4.2 2 4.3 4.4z" opacity=".05"/><path d="m95.7 45.5h-14.1l-.1-.1-2.4-2.5h-8.3l-2.4 2.5-.1.1h-4.1c-2.3 0-4.2 2-4.2 4.4v22.7c0 2.5 1.9 4.4 4.2 4.4h31.6c2.3 0 4.2-2 4.2-4.4v-22.6c-.1-2.5-2-4.5-4.3-4.5zm3.3 27.2c0 1.9-1.4 3.4-3.2 3.4h-31.6c-1.8 0-3.2-1.5-3.2-3.4v-22.8c0-1.9 1.4-3.4 3.2-3.4h4.5l.3-.3.1-.1 2.1-2.2h7.5l2.1 2.2.1.1.3.3h14.5c1.8 0 3.2 1.5 3.3 3.4z" opacity=".2"/><ellipse cx="92.5" cy="52.7" opacity=".05" rx="2" ry="2"/><circle cx="74.4" cy="62.3" opacity=".05" r="8"/><path d="m92.5 49.7c-1.7 0-3 1.4-3 3 0 1.7 1.3 3 3 3s3-1.3 3-3-1.3-3-3-3zm0 5c-1.1 0-2-.9-2-2s.9-2 2-2 2 .9 2 2-.9 2-2 2z" opacity=".2"/><path d="m74.4 53.3c-5 0-9 3.9-9 9 0 5 4 9 9 9s9-4 9-9c0-5.1-3.9-9-9-9zm0 17c-4.4 0-8-3.5-8-8s3.6-8 8-8c4.5 0 8 3.5 8 8s-3.7 8-8 8z" opacity=".2"/></svg>