<svg xmlns="http://www.w3.org/2000/svg" width="160" height="120" fill="none" xmlns:v="https://vecta.io/nano"><path fill-rule="evenodd" d="M52.001 54.457a23.46 23.46 0 0 0 23.457 23.456c4.659 0 9-1.358 12.65-3.7l12.315 12.315a5.03 5.03 0 0 0 7.109 0 5.03 5.03 0 0 0 0-7.108L95.216 67.104c2.341-3.649 3.698-7.99 3.698-12.647 0-12.955-10.502-23.456-23.457-23.456a23.46 23.46 0 0 0-23.456 23.456zm23.455 13.404c-7.403 0-13.404-6.001-13.404-13.404s6.001-13.404 13.404-13.404S88.86 47.054 88.86 54.457s-6.001 13.404-13.404 13.404z" fill="#d6d6d6"/></svg>